<?xml version="1.0" encoding="UTF-8" standalone="no"?>
<!-- Created with Inkscape (http://www.inkscape.org/) -->

<svg
   width="2132"
   height="622"
   viewBox="0 0 1269.4043 370.34216"
   version="1.1"
   id="svg1"
   xml:space="preserve"
   xmlns="http://www.w3.org/2000/svg"
   xmlns:svg="http://www.w3.org/2000/svg"><defs
     id="defs1"><rect
       x="1370.0413"
       y="308.37699"
       width="661.48042"
       height="211.86206"
       id="rect6" /><rect
       x="607.33789"
       y="228.34022"
       width="329.5632"
       height="291.89883"
       id="rect5" /><rect
       x="687.37467"
       y="94.160914"
       width="1134.639"
       height="390.76779"
       id="rect3" /><rect
       x="645.00226"
       y="190.67585"
       width="1367.6873"
       height="327.20918"
       id="rect2" /></defs><g
     id="layer1"
     transform="translate(80.191238,19.9013)"><path
       style="fill:#000000;fill-opacity:1"
       d="m 94.215924,317.48255 c -1.07541,-0.54671 -1.74864,-1.72442 -6.61071,-11.56433 -4.21635,-8.5331 -5.58974,-11.01081 -6.21099,-11.20519 -0.43869,-0.13726 -2.3787,-0.59294 -4.31112,-1.01262 -4.46345,-0.96935 -10.1117,-2.8367 -13.91641,-4.60085 -1.63132,-0.7564 -2.98901,-1.33416 -3.01709,-1.2839 -0.0281,0.0503 -1.13832,3.66325 -2.4672,8.02887 -2.64656,8.69445 -2.89581,9.32326 -4.16557,10.50911 -1.73973,1.62476 -5.15732,1.19041 -6.47665,-0.82314 -1.14806,-1.75216 -0.98191,-2.85736 1.77888,-11.83282 1.4673,-4.77029 2.76036,-9.13595 2.87347,-9.70147 0.18884,-0.9442 0.0233,-1.15584 -2.02569,-2.59 -6.03144,-4.22158 -12.92914,-10.94283 -17.59987,-17.14964 -6.3177,-8.39542 -11.68576,-19.10951 -14.48643,-28.91342 -0.44343,-1.55222 -0.83791,-2.87351 -0.87664,-2.9362 -0.0387,-0.0627 -1.33559,0.2857 -2.88191,0.77418 -11.1976592,3.53734 -22.1424092,2.47478 -31.16274,-3.02542 -3.4694,-2.11548 -8.375,-6.90315 -10.13775,-9.89402 -6.1264,-10.39474 -4.88947,-22.40518 3.19882,-31.05993 1.10846,-1.18609 1.98159,-2.17601 1.94028,-2.19981 -1.78035,-1.02572 -6.36478,-4.99654 -9.44376,-8.17973 -5.0197,-5.1896 -8.13066,-9.53312 -11.06271,-15.44573 -4.15055,-8.36979 -5.71869,-15.16664 -5.39945,-23.40307 0.11184,-2.88541 0.43341,-5.73926 0.8014,-7.1122 5.82873,-21.74639 27.43419,-28.61057 52.1933108,-16.58211 3.6476695,1.77211 10.6508192,6.11099 13.6198492,8.43832 l 0.91985,0.72104 0.21716,-8.0185 c 0.14721,-5.43602 0.43539,-9.26826 0.89479,-11.89903 4.09652,-23.458918 16.58016,-41.196429 36.0303,-51.194013 1.84326,-0.947458 3.40616,-1.750965 3.4731,-1.785571 0.0669,-0.03461 -2.06459,-3.70711 -4.73673,-8.16112 l -4.85846,-8.098201 -2.84798,-0.156602 c -3.60683,-0.198329 -6.16198,-1.350929 -8.47378,-3.822428 -2.50205,-2.674896 -3.18973,-4.457444 -3.19187,-8.273727 -10e-4,-2.755059 0.1271,-3.437441 0.97265,-5.159212 1.15913,-2.360325 3.87248,-5.010976 6.18088,-6.038067 2.51654,-1.119701 6.42405,-1.243263 8.96721,-0.283557 2.77782,1.04826 5.28295,3.396118 6.70441,6.283512 0.99566,2.022478 1.15267,2.707148 1.15267,5.026469 0,2.296257 -0.15927,3.006392 -1.09989,4.904162 l -1.09989,2.2191 5.12502,8.694629 c 2.81875,4.782046 5.30017,8.88308 5.51424,9.113409 0.29853,0.321188 1.08803,0.21405 3.38785,-0.459746 7.0646,-2.06977 12.9142,-2.931121 21.71743,-3.197883 10.466956,-0.317177 19.770776,0.765182 27.905286,3.24636 1.66756,0.508637 3.14943,0.7944 3.29305,0.63503 0.14362,-0.15937 2.58873,-4.306488 5.43359,-9.215819 l 5.17246,-8.926056 -0.6828,-0.958903 c -1.24201,-1.744245 -1.91835,-4.483126 -1.71933,-6.962541 0.33256,-4.142943 2.72795,-7.688236 6.66989,-9.871732 1.71738,-0.951285 2.18049,-1.043468 5.23542,-1.04212 2.94487,0.0013 3.59286,0.119916 5.34207,0.977877 7.27039,3.566029 9.19101,13.196188 3.80674,19.087431 -2.46921,2.701708 -4.88549,3.833588 -8.59995,4.028547 l -2.8789,0.151104 -4.65581,7.883472 c -2.5607,4.335909 -4.65581,8.015202 -4.65581,8.176206 0,0.161004 0.91281,0.738314 2.02847,1.282911 7.77713,3.79632 16.74498,10.909396 22.05956,17.497105 8.26742,10.247897 13.82442,23.912402 15.62396,38.418834 0.27757,2.23752 0.50467,6.7333 0.50467,9.99065 0,3.25734 0.0914,5.92244 0.20319,5.92244 0.11175,0 1.10393,-0.69256 2.20486,-1.53902 9.9801,-7.6734 22.08815,-12.63648 32.86972,-13.4733 3.54674,-0.27528 9.03082,0.31239 12.32346,1.32057 9.12156,2.79296 15.78463,9.913 18.94658,20.24598 0.89545,2.92626 0.96467,3.60525 0.98609,9.67354 0.0215,6.08398 -0.0454,6.78943 -0.98688,10.40694 -3.2633,12.53918 -10.77573,23.98513 -21.13045,32.19439 -1.50567,1.1937 -3.00426,2.3196 -3.33019,2.502 -0.50791,0.28424 -0.26086,0.68995 1.72871,2.83887 2.71346,2.93079 4.85996,6.82557 5.94857,10.79356 1.09601,3.99502 0.87035,10.41607 -0.50715,14.43005 -1.32759,3.86853 -3.3913,7.24245 -6.30829,10.31329 -8.99684,9.47133 -22.86537,12.49448 -37.103,8.08794 -2.84348,-0.88006 -3.37578,-0.88473 -3.37578,-0.0297 0,0.71807 -2.38023,7.70594 -3.78805,11.12094 -2.70809,6.56914 -6.86848,13.88445 -11.17977,19.6577 -5.44939,7.29726 -13.83011,15.1606 -20.21244,18.96461 -0.0434,0.0259 1.26496,4.32423 2.90743,9.55193 3.01343,9.59128 3.34347,11.25978 2.54097,12.84572 -0.61467,1.21476 -2.61729,2.48029 -3.92239,2.47872 -1.4084,-0.002 -3.21354,-1.10727 -3.8604,-2.36433 -0.27899,-0.54216 -1.65714,-4.71637 -3.06255,-9.27602 -1.40542,-4.55965 -2.5885,-8.33131 -2.62908,-8.38146 -0.0406,-0.0502 -1.40857,0.52464 -3.03999,1.27732 -3.8377,1.77056 -10.85505,4.04288 -15.26375,4.94263 -1.91295,0.3904 -3.52252,0.75864 -3.57682,0.8183 -0.0543,0.0597 -2.48068,4.87099 -5.39195,10.69182 -2.91127,5.82083 -5.691414,10.95353 -6.178094,11.406 -1.1689,1.08674 -3.250602,1.31699 -4.797402,0.53063 z m 10.118896,-31.18339 c 13.13736,-1.43104 24.93005,-6.09803 35.46956,-14.03716 l 3.58357,-2.69941 -23.54637,-0.0907 c -12.9505,-0.0499 -34.098646,-0.0499 -46.995866,0 l -23.4495,0.0907 2.19465,1.75624 c 8.15916,6.5293 18.32938,11.46888 27.9798,13.58952 7.46819,1.64111 17.364112,2.19688 24.764156,1.39081 z m 60.81005,-49.19212 c 1.79203,-5.32518 3.14862,-11.55092 4.32396,-19.84375 l 0.2125,-1.49931 H 96.277766 22.874224 l 0.22376,1.6757 c 0.48164,3.60693 1.65188,9.92589 2.33564,12.6118 0.70883,2.78435 2.70622,9.27441 3.01314,9.79048 0.0868,0.14602 30.66574,0.22539 67.953122,0.17639 l 67.795244,-0.0891 z M 7.5716243,225.32157 c 1.74625,-0.36504 4.1052297,-1.01588 5.2421897,-1.44631 l 2.06719,-0.78261 -0.21095,-1.31917 c -0.68102,-4.25889 -0.94966,-9.14907 -0.85527,-15.56916 l 0.10684,-7.26661 -5.3395297,-0.75264 c -6.3893495,-0.90061 -13.6701796,-2.71056 -17.9775095,-4.46905 -1.7277198,-0.70535 -3.4141098,-1.36844 -3.7475298,-1.47353 -0.90038,-0.28379 -3.873131,2.05771 -5.703031,4.49202 -4.2786,5.69179 -4.53022,13.21211 -0.64327,19.22597 3.04769,4.71537 8.869531,8.39488 15.2693407,9.6505 2.8100901,0.55133 8.4294001,0.41341 11.7915296,-0.28941 z m 189.7944157,0.14011 c 11.75046,-2.47724 19.20281,-12.13148 17.06377,-22.1055 -0.82472,-3.84553 -3.19368,-7.58704 -6.3071,-9.96137 l -1.74143,-1.32803 -3.62568,1.41443 c -4.36204,1.7017 -8.69552,2.93966 -13.67983,3.90797 -3.07448,0.59729 -8.90553,1.44147 -9.95672,1.44147 -0.15061,0 -0.27384,3.56375 -0.27384,7.91943 0,5.08351 -0.19352,9.39571 -0.54042,12.04199 -0.29723,2.26741 -0.49566,4.15901 -0.44097,4.20357 0.0547,0.0445 1.05195,0.4373 2.21612,0.87277 5.31469,1.98803 12.34148,2.6357 17.2861,1.59327 z M 15.633894,186.74801 c 1.9562,-8.79248 6.0393,-17.98737 10.77003,-24.25347 1.5381,-2.03729 3.41778,-4.30354 4.17708,-5.03612 l 1.38054,-1.33195 -2.8578,-2.90138 c -3.39235,-3.44408 -5.8079,-7.17996 -7.26365,-11.23389 -1.1482,-3.19746 -1.02136,-3.04984 -6.86014,-7.9843 -8.0795297,-6.82816 -17.9080592,-11.91582 -26.355289,-13.6426 -3.567121,-0.7292 -10.722671,-0.73751 -13.493961,-0.0157 -5.15228,1.342 -9.39729,4.85899 -11.83537,9.8056 -1.76221,3.57536 -2.45274,6.77429 -2.46066,11.39927 -0.0186,10.85854 5.19231,22.30856 14.26647,31.348 7.59898,7.56991 15.1837808,11.75999 26.4732608,14.62467 3.61588,0.91752 10.1711892,2.06699 11.9976392,2.10378 l 1.41432,0.0285 z m 167.752156,2.36285 c 13.8702,-2.02563 24.33681,-6.83291 33.3129,-15.3005 14.16207,-13.35978 19.28932,-34.31578 11.24642,-45.96619 -2.56497,-3.71544 -6.31954,-6.40058 -10.49974,-7.50904 -2.46213,-0.65288 -8.74471,-0.74482 -12.28202,-0.17973 -2.99038,0.47772 -8.16952,2.12172 -11.56403,3.67076 -5.811,2.65178 -14.25352,8.44658 -19.41304,13.32481 -2.02138,1.91117 -2.52302,2.64118 -3.44731,5.01662 -1.47231,3.78386 -4.35901,8.09486 -7.50984,11.21516 l -2.62303,2.59763 2.62903,2.9925 c 6.67373,7.59639 11.46807,17.31762 13.69821,27.77513 0.72703,3.40919 0.31668,3.25892 6.45245,2.36285 z m -16.1825,-3.31291 c 0,-0.84564 -2.33402,-7.22953 -3.72452,-10.18712 -2.59917,-5.52844 -5.81062,-9.87579 -9.70235,-13.13413 l -1.75967,-1.47328 -3.78381,1.25472 c -2.0811,0.69009 -5.12903,1.42246 -6.77317,1.6275 -3.9316,0.4903 -85.285216,0.50075 -89.929916,0.0115 -2.02935,-0.21373 -4.7412,-0.82667 -6.99663,-1.58138 -2.02559,-0.67781 -3.83021,-1.23238 -4.01027,-1.23238 -0.61166,0 -6.04559,5.45794 -7.59593,7.62948 -1.98073,2.7744 -5.09288,9.26172 -6.46713,13.48081 -0.59029,1.81225 -1.07326,3.43944 -1.07326,3.61597 0,0.1917 28.55669,0.32096 70.908322,0.32096 44.185154,0 70.908334,-0.12538 70.908334,-0.3327 z m -25.92917,-31.20479 c 10.26682,-1.57823 18.753,-8.28314 21.7009,-17.14583 0.6831,-2.05368 0.78301,-3.30821 0.95715,-12.01771 0.2081,-10.40831 -0.0922,-15.09578 -1.36597,-21.31979 -1.6054,-7.844637 -5.14196,-16.431664 -9.51657,-23.106945 -2.74868,-4.194238 -9.39168,-10.896232 -14.06856,-14.193499 -8.31823,-5.864465 -18.74559,-9.992254 -29.80972,-11.800509 -4.88166,-0.797829 -19.099506,-0.896647 -23.988896,-0.166729 -4.14848,0.619311 -10.91701,2.219833 -14.46389,3.420209 -3.52708,1.193677 -11.51732,4.980571 -14.60438,6.921596 -11.49357,7.226726 -19.46932,17.591179 -23.99307,31.178891 -2.81227,8.447016 -3.55257,14.046296 -3.55658,26.900056 -0.003,10.5355 0.3417,13.12056 2.29319,17.18304 3.57015,7.4321 11.80804,13.10718 20.7025,14.26193 1.22376,0.15888 21.19564,0.30788 44.381952,0.33111 34.293044,0.0344 42.749214,-0.0488 45.331944,-0.44582 z M 55.412634,143.23974 c -5.98802,-1.61038 -10.64804,-6.25576 -12.22717,-12.18877 -0.73,-2.74272 -0.74,-37.343829 -0.0116,-40.080022 1.25877,-4.728386 4.28326,-8.450009 8.60182,-10.58452 l 2.67837,-1.323821 40.58793,-0.106329 c 30.548666,-0.08003 41.094496,-0.0016 42.635896,0.31692 5.09121,1.052205 9.91399,5.609409 11.57119,10.933996 0.62041,1.993382 0.66836,3.483863 0.66836,20.776066 0,17.51905 -0.0413,18.76219 -0.6929,20.87066 -0.81587,2.63992 -2.24299,5.00153 -4.21275,6.97128 -1.96306,1.96307 -3.80531,3.05838 -6.87987,4.09048 l -2.62638,0.88164 -39.096134,-0.0232 c -32.976962,-0.0196 -39.393612,-0.10322 -40.996782,-0.53437 z m 51.462026,-9.14178 c 1.42796,-0.73843 2.12056,-1.87084 2.12056,-3.46718 0,-1.08527 -0.24782,-1.61571 -1.19944,-2.56733 L 106.59633,126.864 H 96.295216 85.994104 l -1.19944,1.19945 c -1.84761,1.8476 -1.55434,4.5144 0.64384,5.85463 1.08005,0.6585 1.78282,0.70448 10.786042,0.70571 7.856194,10e-4 9.818544,-0.0958 10.650114,-0.52583 z M 74.853464,116.07617 c 0.91586,-0.30294 2.4384,-1.24597 3.38342,-2.09562 5.7427,-5.16318 4.59708,-14.478117 -2.22639,-18.10261 -1.55129,-0.824017 -2.16782,-0.937148 -5.11528,-0.938639 -3.05215,-0.0015 -3.51892,0.09111 -5.22776,1.03773 -4.28526,2.373845 -6.53411,7.032029 -5.6649,11.734049 0.46687,2.52553 1.03546,3.63883 2.88104,5.64105 3.09986,3.36295 7.21025,4.29838 11.96987,2.72404 z m 50.491086,0.10806 c 3.07602,-1.07432 6.08735,-4.24336 6.93644,-7.29972 0.94788,-3.41195 -0.006,-7.82477 -2.25993,-10.458356 -1.9447,-2.271939 -4.44794,-3.420264 -7.84448,-3.598537 -2.55516,-0.134112 -3.11085,-0.04512 -4.94326,0.791633 -2.69392,1.230154 -4.42355,2.95668 -5.63398,5.62386 -2.39503,5.27748 -0.45619,11.15943 4.6796,14.19675 2.57721,1.52416 6.02284,1.80709 9.06561,0.74437 z"
       id="path1" /><path
       id="text2"
       style="font-size:144px;line-height:144px;text-align:start;letter-spacing:0px;word-spacing:0px;writing-mode:lr-tb;direction:ltr;text-anchor:start;white-space:pre;shape-inside:url(#rect2);display:inline;fill:#000000;fill-opacity:1;stroke-width:1.45244;stroke-dasharray:none"
       d="m 343.97966,81.956777 c -6.9258,0 -12.31209,5.4535 -12.31209,12.46605 V 244.02386 c 0,7.01255 5.38629,12.46746 12.31209,12.46746 h 61.56356 c 27.31842,0 49.24987,-22.20641 49.24987,-49.86702 0,-17.92096 -9.61984,-33.89438 -23.85621,-42.85486 7.31056,-8.5709 11.54414,-19.8685 11.54414,-31.94566 0,-27.6606 -21.93304,-49.867003 -49.25146,-49.867003 z m 123.71758,0 c -6.9258,0 -12.31209,5.4535 -12.31209,12.46605 V 244.02386 c 0,7.01255 5.38629,12.46746 12.31209,12.46746 h 98.49978 c 6.9258,0 12.31365,-5.45491 12.31365,-12.46746 0,-7.01255 -5.38785,-12.46606 -12.31365,-12.46606 h -86.18771 v -49.86701 h 61.56355 c 6.92579,0 12.31208,-5.4549 12.31208,-12.46745 0,-7.01255 -5.38629,-12.46605 -12.31208,-12.46605 h -61.56355 v -49.86702 h 86.18771 c 6.9258,0 12.31365,-5.45489 12.31365,-12.467443 0,-7.01255 -5.38785,-12.46605 -12.31365,-12.46605 z m 123.71758,0 c -6.92581,0 -12.31366,5.4535 -12.31366,12.46605 V 244.02386 c 0,7.01255 5.38785,12.46746 12.31366,12.46746 h 98.49978 c 6.9258,0 12.31207,-5.45491 12.31207,-12.46746 0,-7.01255 -5.38627,-12.46606 -12.31207,-12.46606 h -86.18772 v -49.86701 h 61.56198 c 6.92581,0 12.31365,-5.4549 12.31365,-12.46745 0,-7.01255 -5.38784,-12.46605 -12.31365,-12.46605 h -61.56198 v -49.86702 h 86.18772 c 6.9258,0 12.31207,-5.45489 12.31207,-12.467443 0,-7.01255 -5.38627,-12.46605 -12.31207,-12.46605 z m 123.71598,0 c -6.92579,0 -12.31208,5.4535 -12.31208,12.46605 V 244.02386 c 0,7.01255 5.38629,12.46746 12.31208,12.46746 h 61.56356 c 27.31842,0 49.24984,-22.20641 49.24984,-49.86702 0,-17.92096 -9.61981,-33.89438 -23.85617,-42.85486 7.31056,-8.5709 11.54415,-19.8685 11.54415,-31.94566 0,-27.6606 -21.93147,-49.867003 -49.24991,-49.867003 z m 197.59323,0 c -47.71107,0 -86.18773,38.957893 -86.18773,87.266563 0,48.30867 38.47666,87.26798 86.18773,87.26798 47.71106,0 86.18773,-38.95931 86.18773,-87.26798 0,-48.30867 -38.47667,-87.266563 -86.18773,-87.266563 z m 99.09177,0 c -6.9258,0 -12.31209,5.4535 -12.31209,12.46605 0,7.012553 5.38629,12.467443 12.31209,12.467443 h 49.2499 v 137.13359 c 0,7.01255 5.3864,12.46746 12.3122,12.46746 6.9258,0 12.3136,-5.45491 12.3136,-12.46746 V 106.89027 h 49.2498 c 6.9258,0 12.3122,-5.45489 12.3122,-12.467443 0,-7.01255 -5.3864,-12.46605 -12.3122,-12.46605 z M 356.29331,106.89027 h 36.93625 c 13.46683,0 24.62573,11.298 24.62573,24.93351 0,13.6355 -11.1589,24.93351 -24.62573,24.93351 h -36.93625 z m 371.15115,0 h 36.93781 c 13.46683,0 24.62417,11.298 24.62417,24.93351 0,13.6355 -11.15734,24.93351 -24.62417,24.93351 h -36.93781 z m 185.27957,0 c 33.85947,0 61.56198,28.0495 61.56198,62.33307 0,34.28357 -27.70251,62.33446 -61.56198,62.33446 -33.85947,0 -61.56363,-28.05089 -61.56363,-62.33446 0,-34.28357 27.70416,-62.33307 61.56363,-62.33307 z m -556.43072,74.80052 h 49.24991 c 13.46682,0 24.62416,11.298 24.62416,24.93351 0,13.63552 -11.15734,24.9335 -24.62416,24.9335 h -49.24991 z m 371.15115,0 h 49.2499 c 13.46683,0 24.62416,11.298 24.62416,24.93351 0,13.63552 -11.15733,24.9335 -24.62416,24.9335 h -49.2499 z" /></g></svg>
